<svg width="36" height="38" viewBox="0 0 36 38" fill="none" xmlns="http://www.w3.org/2000/svg">
<rect x="0.00146484" y="0.0634766" width="2.93881" height="17.9267" fill="black"/>
<rect x="0.000976562" y="15.0511" width="17.0451" height="2.93881" fill="black"/>
<rect x="0.00146484" y="0.0634766" width="12.343" height="2.93881" fill="black"/>
<rect x="6.49072" y="2.97998" width="3.23266" height="4.40821" fill="black"/>
<rect x="6.49072" y="10.1794" width="3.23266" height="4.99597" fill="black"/>
<rect x="19.2505" y="0.0634766" width="2.93871" height="14.9878" fill="black"/>
<rect x="22.1895" y="15.0511" width="13.812" height="2.93879" fill="black"/>
<rect width="2.60269" height="9.65168" transform="matrix(-1 0 0 1 30.6543 0.0634766)" fill="black"/>
<rect width="7.91651" height="2.6027" transform="matrix(1 0 0 -1 28.0522 9.71472)" fill="black"/>
<rect x="25.6665" y="9.71472" width="2.3858" height="2.38581" fill="black"/>
<rect x="0.000976562" y="20.0099" width="2.93881" height="17.9267" fill="black"/>
<rect x="0.000976562" y="34.9977" width="17.0451" height="2.93881" fill="black"/>
<rect x="0.000976562" y="20.0099" width="12.343" height="2.93881" fill="black"/>
<ellipse cx="8.48059" cy="26.7302" rx="1.61633" ry="1.61634" fill="black"/>
<ellipse cx="7.30481" cy="30.8446" rx="1.61633" ry="1.61634" fill="black"/>
<path d="M35.2732 28.3855C35.2732 26.729 34.7819 25.1096 33.8616 23.7323C32.9413 22.3549 31.6332 21.2814 30.1028 20.6474C28.5723 20.0135 26.8883 19.8476 25.2636 20.1708C23.6389 20.494 22.1465 21.2917 20.9751 22.4631C19.8038 23.6344 19.0061 25.1268 18.6829 26.7515C18.3597 28.3762 18.5256 30.0603 19.1595 31.5907C19.7935 33.1212 20.867 34.4293 22.2443 35.3496C23.6217 36.2699 25.241 36.7612 26.8976 36.7612V33.493C25.8874 33.493 24.8999 33.1934 24.06 32.6322C23.2201 32.071 22.5655 31.2733 22.1789 30.3401C21.7924 29.4068 21.6912 28.3799 21.8883 27.3891C22.0853 26.3984 22.5718 25.4883 23.2861 24.774C24.0004 24.0597 24.9104 23.5733 25.9012 23.3762C26.8919 23.1791 27.9188 23.2803 28.8521 23.6669C29.7854 24.0534 30.583 24.7081 31.1442 25.548C31.7054 26.3879 32.005 27.3754 32.005 28.3855H35.2732Z" fill="black"/>
<path d="M35.2732 28.3855C35.2732 26.729 34.7819 25.1096 33.8616 23.7323C32.9413 22.3549 31.6332 21.2814 30.1028 20.6474C28.5723 20.0135 26.8883 19.8476 25.2636 20.1708C23.6389 20.494 22.1465 21.2917 20.9751 22.4631C19.8038 23.6344 19.0061 25.1268 18.6829 26.7515C18.3597 28.3762 18.5256 30.0603 19.1595 31.5907C19.7935 33.1212 20.867 34.4293 22.2443 35.3496C23.6217 36.2699 25.241 36.7612 26.8976 36.7612V33.493C25.8874 33.493 24.8999 33.1934 24.06 32.6322C23.2201 32.071 22.5655 31.2733 22.1789 30.3401C21.7924 29.4068 21.6912 28.3799 21.8883 27.3891C22.0853 26.3984 22.5718 25.4883 23.2861 24.774C24.0004 24.0597 24.9104 23.5733 25.9012 23.3762C26.8919 23.1791 27.9188 23.2803 28.8521 23.6669C29.7854 24.0534 30.583 24.7081 31.1442 25.548C31.7054 26.3879 32.005 27.3754 32.005 28.3855H35.2732Z" fill="black"/>
<rect x="25.3755" y="25.6971" width="2.93873" height="2.05721" fill="black"/>
<rect x="25.3755" y="28.6356" width="2.93873" height="2.3511" fill="black"/>
</svg>
